<svg xmlns="http://www.w3.org/2000/svg" viewBox="0 0 169.51 95"><defs><style>.cls-1{fill:#231815;}</style></defs><g id="レイヤー_2" data-name="レイヤー 2"><g id="レイヤー_1-2" data-name="レイヤー 1"><path class="cls-1" d="M21.57,77.72c1.49,0,2.34.76,2.67,2.4l1.31,1.12h2.73l1.52-1.41c-.71-4.66-3.63-7.24-8.23-7.24-5.45,0-8.57,3.56-8.57,9.77v2.87C13,91.44,16.12,95,21.57,95c4.73,0,7.49-2.44,8.2-7.24l-1.26-1.54h-3l-1.31,1.24c-.38,1.76-1.1,2.42-2.67,2.42-.77,0-2.8,0-2.8-4.65V82.36C18.77,78.27,20.18,77.72,21.57,77.72Z"/><polygon class="cls-1" points="69.84 74.5 69.45 72.86 64.59 72.86 63.11 74.03 59.04 79.87 59.04 74.11 57.74 72.86 54.54 72.86 53.27 74.11 53.27 93.9 54.55 94.74 57.73 94.74 59.04 93.9 59.04 88.82 60.53 86.86 64.64 93.68 65.76 94.74 70.17 94.74 71.36 93.47 64.28 81.91 69.84 74.5"/><polygon class="cls-1" points="98.48 72.86 96.66 74.56 96.66 93.43 98.27 94.74 109.4 94.74 110.92 93.24 110.92 91.11 109.31 89.61 102.43 89.61 102.43 86.01 108.69 86.01 110.04 84.69 110.04 82.27 108.59 80.89 102.43 80.89 102.43 78.01 109.59 78.01 110.92 76.43 110.92 74.4 109.47 72.86 98.48 72.86"/><polygon class="cls-1" points="153.98 72.86 150.25 72.86 148.8 74.01 146.24 79.3 143.71 74.03 142.21 72.86 138.48 72.86 137.15 74.08 143.35 85.85 143.35 93.41 144.88 94.74 147.78 94.74 149.12 93.41 149.12 85.85 155.32 74.08 153.98 72.86"/><path class="cls-1" d="M13.38,26.4l.09-6.65c.32-3.51,4.13-6.32,7.84-6.32a7.73,7.73,0,0,1,7.85,7.92c-1.47,1.74-4.33,5-4.33,5l13.42.1s3-3.4,4.49-5.12C42.81,8,31.42,0,21,0,10.11,0,.12,9.52,0,19.67l0,6.67Z"/><path class="cls-1" d="M24.83,42.6s2.86,3,4.33,4.66a7.49,7.49,0,0,1-7.85,7.42c-3.71,0-7.52-2.63-7.84-5.92l-.09-6.22L0,42.59l0,6.25c.12,9.5,10.11,18.42,21,18.42,10.42,0,21.81-7.49,21.74-20-1.52-1.61-4.49-4.79-4.49-4.79Z"/><path class="cls-1" d="M30.93,34.64H42.8c-1.37-1.91-3.92-5.49-4.4-6.18h0l-.08-.11-8.46.07-14.61-.07s-5.12,4.18-7.75,6.3h0c2.63,2.11,7.75,6.3,7.75,6.3l14.61-.08,8.46.08.08-.12h0c.48-.68,3-4.26,4.4-6.17Zm-1.15,0h0Z"/><path class="cls-1" d="M140.08,26.4l.09-6.65c.32-3.51,4.13-6.32,7.85-6.32a7.72,7.72,0,0,1,7.84,7.92c-1.46,1.74-4.33,5-4.33,5l13.43.1s3-3.4,4.49-5.12C169.51,8,158.13,0,147.71,0c-10.89,0-20.89,9.52-21,19.67l0,6.67Z"/><path class="cls-1" d="M151.53,42.6s2.87,3,4.33,4.66A7.47,7.47,0,0,1,148,54.68c-3.72,0-7.53-2.63-7.85-5.92l-.09-6.22-13.35.05,0,6.25c.11,9.5,10.11,18.42,21,18.42,10.42,0,21.8-7.49,21.74-20-1.52-1.61-4.49-4.79-4.49-4.79Z"/><path class="cls-1" d="M157.64,34.64h11.87c-1.38-1.91-3.92-5.49-4.4-6.18h0l-.08-.11-8.47.07L142,28.35s-5.12,4.18-7.75,6.3h0C136.83,36.76,142,41,142,41l14.6-.08L165,41l.08-.12h0c.48-.68,3-4.26,4.4-6.17Zm-1.15,0h0Z"/><path class="cls-1" d="M70.34,66.32H55.27v-48l-8.49,4.48V8.14L55.27.93H65.66l4.68,5.21Z"/><path class="cls-1" d="M109.57,1.47,79,2.41c-.12-.13-.23,55.7-.23,55.7l8.92,7.74h32.5V8.4Zm-4.88,53.61H96.41L94.15,52.5s0-40.34.09-40.25h7.32L104.69,15Z"/></g></g></svg>